HIERARCHY
ROOT Hips
{
    OFFSET 0.000000 0.000000 0.000000
    CHANNELS 6 Xposition Yposition Zposition Zrotation Xrotation Yrotation
    JOINT Spine
    {
        OFFSET -0.000000 14.517291 0.000000
        CHANNELS 3 Zrotation Xrotation Yrotation
        JOINT Spine1
        {
            OFFSET -0.000000 37.558300 0.000000
            CHANNELS 3 Zrotation Xrotation Yrotation
            JOINT Neck
            {
                OFFSET -0.000000 37.404057 3.400369
                CHANNELS 3 Zrotation Xrotation Yrotation
                JOINT Head
                {
                    OFFSET -0.000000 24.785618 -3.540803
                    CHANNELS 3 Zrotation Xrotation Yrotation
                    End Site
                    {
                        OFFSET -0.000000 35.408028 0.000000
                    }
                }
            }
            JOINT LeftShoulder
            {
                OFFSET 6.992933 33.973492 -0.192664
                CHANNELS 3 Zrotation Xrotation Yrotation
                JOINT LeftArm
                {
                    OFFSET 21.527611 0.000000 0.000000
                    CHANNELS 3 Zrotation Xrotation Yrotation
                    JOINT LeftForeArm
                    {
                        OFFSET 56.353916 0.000000 0.000000
                        CHANNELS 3 Zrotation Xrotation Yrotation
                        JOINT LeftHand
                        {
                            OFFSET 47.774071 0.000000 0.000000
                            CHANNELS 3 Zrotation Xrotation Yrotation
                            End Site
                            {
                                OFFSET 26.556021 0.000000 0.000000
                            }
                        }
                    }
                }
            }
            JOINT RightShoulder
            {
                OFFSET -7.065357 33.973492 -0.192664
                CHANNELS 3 Zrotation Xrotation Yrotation
                JOINT RightArm
                {
                    OFFSET -21.527611 0.000000 0.000000
                    CHANNELS 3 Zrotation Xrotation Yrotation
                    JOINT RightForeArm
                    {
                        OFFSET -56.353916 0.000000 0.000000
                        CHANNELS 3 Zrotation Xrotation Yrotation
                        JOINT RightHand
                        {
                            OFFSET -47.774071 0.000000 0.000000
                            CHANNELS 3 Zrotation Xrotation Yrotation
                            End Site
                            {
                                OFFSET -26.556021 0.000000 0.000000
                            }
                        }
                    }
                }
            }
        }
    }
    JOINT LeftUpLeg
    {
        OFFSET 17.704014 0.000000 0.000000
        CHANNELS 3 Zrotation Xrotation Yrotation
        JOINT LeftLeg
        {
            OFFSET -0.000000 -81.181816 0.000000
            CHANNELS 3 Zrotation Xrotation Yrotation
            JOINT LeftFoot
            {
                OFFSET -0.000000 -62.821102 0.000000
                CHANNELS 3 Zrotation Xrotation Yrotation
                JOINT LeftToeBase
                {
                    OFFSET -0.000000 -11.507608 26.556021
                    CHANNELS 3 Zrotation Xrotation Yrotation
                    End Site
                    {
                        OFFSET -0.000000 0.000000 7.081605
                    }
                }
            }
        }
    }
    JOINT RightUpLeg
    {
        OFFSET -17.704014 0.000000 0.000000
        CHANNELS 3 Zrotation Xrotation Yrotation
        JOINT RightLeg
        {
            OFFSET -0.000000 -81.181816 0.000000
            CHANNELS 3 Zrotation Xrotation Yrotation
            JOINT RightFoot
            {
                OFFSET -0.000000 -62.821102 0.000000
                CHANNELS 3 Zrotation Xrotation Yrotation
                JOINT RightToeBase
                {
                    OFFSET -0.000000 -11.507608 26.556021
                    CHANNELS 3 Zrotation Xrotation Yrotation
                    End Site
                    {
                        OFFSET -0.000000 0.000000 7.081605
                    }
                }
            }
        }
    }
}
MOTION
Frames:    9
Frame Time:    0.008333
22.885323    152.348740    -109.166161    -0.061990    -7.426253    35.226830    -1.766190    2.010007    -1.816671    -2.811625    0.184375    -0.611763    5.759713    1.329129    -14.647695    11.370481    6.657471    -15.119240    6.517390    8.393825    -18.393639    -29.091135    22.725714    -52.444714    -0.579086    -14.313087    -99.559471    7.077441    -15.580439    -10.098986    -1.982491    -3.416532    -3.625751    32.859745    -19.396936    50.235443    -52.750027    -42.803757    33.261189    -1.107497    -29.297295    31.480219    15.894246    -2.488846    2.300967    -17.613655    43.413651    -14.648172    12.280394    -31.645208    47.703484    0.000000    0.000000    0.000000    -19.755016    -17.928772    -13.373606    13.011586    31.935936    -13.749985    6.436369    3.462478    -14.864380    0.000000    0.000000    0.000000    
22.849403    152.355988    -109.168533    -0.060868    -7.430034    35.223297    -1.749725    1.994247    -1.805760    -2.832997    0.218698    -0.607039    5.716506    1.327416    -14.672902    11.421740    6.671077    -15.137000    6.507380    8.377201    -18.381493    -29.101858    22.713289    -52.482918    -0.689600    -14.335317    -99.615105    7.061566    -15.718193    -9.936595    -2.010441    -3.349367    -3.556406    32.877983    -19.290462    50.483177    -52.116764    -42.778835    33.862183    -1.052845    -29.177628    31.457767    15.898887    -2.496439    2.284201    -17.609802    43.411823    -14.636434    12.262561    -31.635885    47.710770    0.000000    0.000000    0.000000    -19.737228    -17.934465    -13.369741    13.009642    31.926764    -13.750687    6.399307    3.480577    -14.868332    0.000000    0.000000    0.000000    
22.808432    152.359146    -109.169029    -0.061239    -7.434577    35.220703    -1.750043    1.986977    -1.792301    -2.822503    0.237588    -0.602132    5.669455    1.322443    -14.695504    11.459690    6.691482    -15.153427    6.478589    8.368483    -18.378292    -29.098711    22.727625    -52.525757    -0.680757    -14.381780    -99.621140    7.047148    -15.751010    -9.900620    -2.057472    -3.282641    -3.478963    32.925137    -19.223389    50.725723    -51.399220    -42.771732    34.531788    -0.931568    -29.065540    31.484835    15.910933    -2.504616    2.249933    -17.628542    43.404446    -14.612710    12.241213    -31.631474    47.718399    0.000000    0.000000    0.000000    -19.716537    -17.944529    -13.374618    13.001094    31.931492    -13.731899    6.374353    3.481868    -14.880974    0.000000    0.000000    0.000000    
22.764296    152.365616    -109.168396    -0.069049    -7.446129    35.218170    -1.738205    1.980546    -1.774890    -2.824116    0.257655    -0.595687    5.644457    1.315042    -14.718964    11.480265    6.708555    -15.175021    6.468494    8.370759    -18.374756    -29.098999    22.725807    -52.588940    -0.654931    -14.424415    -99.612747    6.956627    -15.756452    -9.902861    -2.094340    -3.206753    -3.408598    32.902149    -19.077311    50.955544    -50.854736    -42.727932    35.038418    -0.797458    -28.930370    31.586246    15.933480    -2.511869    2.215237    -17.642235    43.397202    -14.599942    12.237063    -31.624435    47.738426    0.000000    0.000000    0.000000    -19.680529    -17.952057    -13.375548    12.987645    31.930536    -13.731414    6.358474    3.490954    -14.885371    0.000000    0.000000    0.000000    
22.724470    152.368805    -109.166489    -0.066271    -7.459984    35.217964    -1.733354    1.977742    -1.758370    -2.815825    0.282642    -0.589559    5.585392    1.316057    -14.746188    11.533508    6.725927    -15.192818    6.446090    8.371507    -18.368000    -29.073383    22.747009    -52.661396    -0.512956    -14.461592    -99.550629    7.059840    -15.650705    -10.085598    -2.146398    -3.134200    -3.342805    32.857529    -18.888628    51.171200    -50.253628    -42.958698    35.626038    -0.366538    -29.035070    31.581442    15.949672    -2.508427    2.205036    -17.640905    43.397125    -14.616780    12.233336    -31.613180    47.756588    0.000000    0.000000    0.000000    -19.654507    -17.953131    -13.377852    12.981565    31.933495    -13.717092    6.327631    3.496022    -14.904469    0.000000    0.000000    0.000000    
22.681074    152.371948    -109.162224    -0.059247    -7.475021    35.219872    -1.744275    1.970266    -1.736746    -2.796318    0.335611    -0.581044    5.521939    1.290612    -14.775308    11.602695    6.740936    -15.211809    6.418810    8.344684    -18.364685    -29.072466    22.756191    -52.721066    -0.498003    -14.498857    -99.580681    7.022454    -15.668619    -10.093676    -2.193007    -3.073667    -3.301327    32.812405    -18.691664    51.409573    -49.739925    -42.884117    36.099579    -0.323894    -28.898249    31.579714    15.959394    -2.499138    2.207457    -17.609484    43.394554    -14.654672    12.224624    -31.603241    47.764355    0.000000    0.000000    0.000000    -19.629951    -17.947462    -13.380687    12.966085    31.940327    -13.694692    6.332174    3.479560    -14.910683    0.000000    0.000000    0.000000    
22.631523    152.375061    -109.160042    -0.053900    -7.486961    35.216381    -1.752555    1.970977    -1.706813    -2.791350    0.360029    -0.570619    5.501873    1.280612    -14.805394    11.623767    6.753688    -15.240675    6.406812    8.336574    -18.381714    -29.080513    22.752892    -52.753559    -0.535225    -14.512761    -99.600159    6.524667    -15.683940    -10.115657    -2.223163    -2.986162    -3.243843    32.753342    -18.516104    51.635284    -49.229645    -42.811535    36.585594    -0.142447    -28.726255    31.652920    15.971583    -2.493096    2.219126    -17.579727    43.388210    -14.660237    12.193682    -31.607765    47.741486    0.000000    0.000000    0.000000    -19.602747    -17.958637    -13.367846    12.955488    31.954529    -13.726743    6.315094    3.486869    -14.901109    0.000000    0.000000    0.000000    
22.583300    152.377686    -109.158394    -0.041880    -7.494893    35.223629    -1.765689    1.971395    -1.684692    -2.793688    0.388613    -0.562604    5.462998    1.285139    -14.838910    11.685517    6.752383    -15.265126    6.394608    8.321527    -18.392706    -29.063286    22.775827    -52.815941    -0.472165    -14.559898    -99.598862    6.549366    -15.661125    -10.116019    -2.251530    -2.922236    -3.180906    32.693230    -18.356924    51.825027    -48.581409    -42.742836    37.195904    -0.124486    -28.597153    31.733665    15.973724    -2.491593    2.239552    -17.534679    43.390430    -14.688456    12.165867    -31.606808    47.719635    0.000000    0.000000    0.000000    -19.592588    -17.961058    -13.355606    12.964835    31.963316    -13.737164    6.294734    3.482420    -14.904683    0.000000    0.000000    0.000000    
22.533689    152.377777    -109.155060    -0.027650    -7.506328    35.236801    -1.781882    1.981846    -1.664214    -2.795039    0.413506    -0.555205    5.443958    1.275383    -14.865413    11.723803    6.752881    -15.287733    6.385625    8.307023    -18.405462    -29.074923    22.763836    -52.865181    -0.450990    -14.537287    -99.621384    6.616859    -15.620032    -10.108839    -2.271447    -2.850223    -3.134037    32.647957    -18.124567    52.015125    -48.026638    -42.720852    37.803638    -0.033684    -28.478222    31.719894    15.980152    -2.490830    2.241303    -17.504696    43.395107    -14.706406    12.140685    -31.604246    47.694889    0.000000    0.000000    0.000000    -19.582634    -17.964989    -13.359170    12.957027    31.991323    -13.746403    6.287138    3.483160    -14.906090    0.000000    0.000000    0.000000    
